REM DIRINDEX 1\2,1\3
REM DIRNAME cjc039,folder01,folder02
TITLE ""
FILE "1741-1760.mp3" MP3
  TRACK 01 AUDIO
    TITLE "0:"
    INDEX 01 00:00:00
  TRACK 02 AUDIO
    TITLE "2:cjc039_2481"
    INDEX 01 00:00:25
  TRACK 03 AUDIO
    TITLE "0:"
    INDEX 01 00:01:42
  TRACK 04 AUDIO
    TITLE "3:cjc039_2482"
    INDEX 01 00:02:18
  TRACK 05 AUDIO
    TITLE "0:"
    INDEX 01 00:05:50
  TRACK 06 AUDIO
    TITLE "2:cjc039_2483"
    INDEX 01 00:07:25
  TRACK 07 AUDIO
    TITLE "0:"
    INDEX 01 00:08:50
  TRACK 08 AUDIO
    TITLE "3:cjc039_2484"
    INDEX 01 00:09:22
  TRACK 09 AUDIO
    TITLE "0:"
    INDEX 01 00:14:02
  TRACK 10 AUDIO
    TITLE "2:cjc039_2485"
    INDEX 01 00:15:50
  TRACK 11 AUDIO
    TITLE "0:"
    INDEX 01 00:17:00
  TRACK 12 AUDIO
    TITLE "3:cjc039_2486"
    INDEX 01 00:17:49
  TRACK 13 AUDIO
    TITLE "0:"
    INDEX 01 00:21:66
  TRACK 14 AUDIO
    TITLE "2:cjc039_2487"
    INDEX 01 00:23:46
  TRACK 15 AUDIO
    TITLE "0:"
    INDEX 01 00:25:11
  TRACK 16 AUDIO
    TITLE "3:cjc039_2488"
    INDEX 01 00:25:66
  TRACK 17 AUDIO
    TITLE "0:"
    INDEX 01 00:29:60
  TRACK 18 AUDIO
    TITLE "2:cjc039_2489"
    INDEX 01 00:31:35
  TRACK 19 AUDIO
    TITLE "0:"
    INDEX 01 00:32:48
  TRACK 20 AUDIO
    TITLE "3:cjc039_2490"
    INDEX 01 00:33:32
  TRACK 21 AUDIO
    TITLE "0:"
    INDEX 01 00:36:62
  TRACK 22 AUDIO
    TITLE "2:cjc039_2491"
    INDEX 01 00:38:37
  TRACK 23 AUDIO
    TITLE "0:"
    INDEX 01 00:40:09
  TRACK 24 AUDIO
    TITLE "3:cjc039_2492"
    INDEX 01 00:40:58
  TRACK 25 AUDIO
    TITLE "0:"
    INDEX 01 00:45:14
  TRACK 26 AUDIO
    TITLE "2:cjc039_2493"
    INDEX 01 00:46:64
  TRACK 27 AUDIO
    TITLE "0:"
    INDEX 01 00:48:12
  TRACK 28 AUDIO
    TITLE "3:cjc039_2494"
    INDEX 01 00:48:65
  TRACK 29 AUDIO
    TITLE "0:"
    INDEX 01 00:51:60
  TRACK 30 AUDIO
    TITLE "2:cjc039_2495"
    INDEX 01 00:53:33
  TRACK 31 AUDIO
    TITLE "0:"
    INDEX 01 00:56:65
  TRACK 32 AUDIO
    TITLE "3:cjc039_2496"
    INDEX 01 00:57:39
  TRACK 33 AUDIO
    TITLE "0:"
    INDEX 01 01:01:44
  TRACK 34 AUDIO
    TITLE "2:cjc039_2497"
    INDEX 01 01:03:24
  TRACK 35 AUDIO
    TITLE "0:"
    INDEX 01 01:04:45
  TRACK 36 AUDIO
    TITLE "3:cjc039_2498"
    INDEX 01 01:05:24
  TRACK 37 AUDIO
    TITLE "0:"
    INDEX 01 01:09:03
  TRACK 38 AUDIO
    TITLE "2:cjc039_2499"
    INDEX 01 01:10:55
  TRACK 39 AUDIO
    TITLE "0:"
    INDEX 01 01:11:72
  TRACK 40 AUDIO
    TITLE "3:cjc039_2500"
    INDEX 01 01:12:48
  TRACK 41 AUDIO
    TITLE "0:"
    INDEX 01 01:17:59
  TRACK 42 AUDIO
    TITLE "2:cjc039_2501"
    INDEX 01 01:19:34
  TRACK 43 AUDIO
    TITLE "0:"
    INDEX 01 01:20:20
  TRACK 44 AUDIO
    TITLE "3:cjc039_2502"
    INDEX 01 01:21:02
  TRACK 45 AUDIO
    TITLE "0:"
    INDEX 01 01:23:65
  TRACK 46 AUDIO
    TITLE "2:cjc039_2503"
    INDEX 01 01:25:43
  TRACK 47 AUDIO
    TITLE "0:"
    INDEX 01 01:26:56
  TRACK 48 AUDIO
    TITLE "3:cjc039_2504"
    INDEX 01 01:27:36
  TRACK 49 AUDIO
    TITLE "0:"
    INDEX 01 01:30:62
  TRACK 50 AUDIO
    TITLE "2:cjc039_2505"
    INDEX 01 01:32:39
  TRACK 51 AUDIO
    TITLE "0:"
    INDEX 01 01:33:50
  TRACK 52 AUDIO
    TITLE "3:cjc039_2506"
    INDEX 01 01:34:34
  TRACK 53 AUDIO
    TITLE "0:"
    INDEX 01 01:37:44
  TRACK 54 AUDIO
    TITLE "2:cjc039_2507"
    INDEX 01 01:39:19
  TRACK 55 AUDIO
    TITLE "0:"
    INDEX 01 01:40:48
  TRACK 56 AUDIO
    TITLE "3:cjc039_2508"
    INDEX 01 01:41:22
  TRACK 57 AUDIO
    TITLE "0:"
    INDEX 01 01:46:18
  TRACK 58 AUDIO
    TITLE "2:cjc039_2509"
    INDEX 01 01:47:66
  TRACK 59 AUDIO
    TITLE "0:"
    INDEX 01 01:48:71
  TRACK 60 AUDIO
    TITLE "3:cjc039_2510"
    INDEX 01 01:49:51
  TRACK 61 AUDIO
    TITLE "0:"
    INDEX 01 01:53:08
  TRACK 62 AUDIO
    TITLE "2:cjc039_2511"
    INDEX 01 01:54:52
  TRACK 63 AUDIO
    TITLE "0:"
    INDEX 01 01:56:08
  TRACK 64 AUDIO
    TITLE "3:cjc039_2512"
    INDEX 01 01:56:61
  TRACK 65 AUDIO
    TITLE "0:"
    INDEX 01 02:00:06
  TRACK 66 AUDIO
    TITLE "2:cjc039_2513"
    INDEX 01 02:01:52
  TRACK 67 AUDIO
    TITLE "0:"
    INDEX 01 02:02:56
  TRACK 68 AUDIO
    TITLE "3:cjc039_2514"
    INDEX 01 02:03:34
  TRACK 69 AUDIO
    TITLE "0:"
    INDEX 01 02:06:57
  TRACK 70 AUDIO
    TITLE "2:cjc039_2515"
    INDEX 01 02:08:27
  TRACK 71 AUDIO
    TITLE "0:"
    INDEX 01 02:09:48
  TRACK 72 AUDIO
    TITLE "3:cjc039_2516"
    INDEX 01 02:10:30
  TRACK 73 AUDIO
    TITLE "0:"
    INDEX 01 02:13:44
  TRACK 74 AUDIO
    TITLE "2:cjc039_2517"
    INDEX 01 02:15:25
  TRACK 75 AUDIO
    TITLE "0:"
    INDEX 01 02:16:32
  TRACK 76 AUDIO
    TITLE "3:cjc039_2518"
    INDEX 01 02:17:08
  TRACK 77 AUDIO
    TITLE "0:"
    INDEX 01 02:20:38
  TRACK 78 AUDIO
    TITLE "2:cjc039_2519"
    INDEX 01 02:22:17
  TRACK 79 AUDIO
    TITLE "0:"
    INDEX 01 02:23:21
  TRACK 80 AUDIO
    TITLE "3:cjc039_2520"
    INDEX 01 02:23:70
  TRACK 81 AUDIO
    TITLE "0:"
    INDEX 01 02:27:13
